<?xml version="1.0" encoding="utf-8"?>
<!-- Generator: Adobe Illustrator 24.1.1, SVG Export Plug-In . SVG Version: 6.00 Build 0)  -->
<svg version="1.1" id="Layer_1" xmlns="http://www.w3.org/2000/svg" xmlns:xlink="http://www.w3.org/1999/xlink" x="0px" y="0px"
	 viewBox="0 0 512 512" style="enable-background:new 0 0 512 512;" xml:space="preserve">
<style type="text/css">
	.st0{fill:none;stroke:#000000;stroke-width:22;stroke-miterlimit:10;}
	.st1{fill:none;stroke:#000000;stroke-width:13;stroke-miterlimit:10;}
	.st2{fill:#FFFFFF;}
	.st3{fill:#2000E9;}
	.st4{fill:#FFFFFF;stroke:#000000;stroke-width:20;stroke-miterlimit:10;}
	.st5{fill:#236184;stroke:#000000;stroke-width:20;stroke-miterlimit:10;}
	.st6{fill:none;stroke:#236184;stroke-width:0.4;stroke-linecap:round;stroke-linejoin:round;stroke-miterlimit:10;}
	.st7{fill:none;stroke:#000000;stroke-width:41;stroke-linecap:round;stroke-miterlimit:10;}
	.st8{fill:#FFFFFF;stroke:#000000;stroke-width:15;stroke-miterlimit:10;}
</style>
<g>
	<path class="st8" d="M31.5,33.3c-1.8,0.2,3.4,76.1,1.9,76.6c2.2,65.8,11.8,156.1,43.9,226.3c17.5,38.3,42.8,73.4,75.3,104.3
		c55.8,53.1,144,54,200.9,2.1c33.1-30.2,59.2-64.8,77.5-102.7c52.3-108.5,50.9-268.7,49.7-307.1C480.5,32.7,63.2,28.9,31.5,33.3z
		 M228.5,224.2c-0.3,2.4-1.6,4.6-3.6,6c-1.2,0.9-19.9,14.4-44.8,21.5c-13.7,3.9-29.2,5.9-44.7,2.7c-45.5-9.3-60.4-71.2-61.1-73.8
		c-0.6-2.5-0.1-5.1,1.4-7.2c1.4-2.1,3.7-3.5,6.2-3.9c1.8-0.3,45-6.2,78.7,0.9c35.4,7.5,64.9,45.4,66.1,47
		C228.2,219.3,228.9,221.7,228.5,224.2z M379.6,255.6c-1.7,0.5-3.5,0.9-5.3,1.2c-43.9,8-87.2-24.6-89-26c-1.9-1.5-3.2-3.7-3.5-6.1
		c-0.3-2.4,0.4-4.9,1.9-6.8c1.3-1.6,31.6-38.9,67.1-45.6c33.8-6.4,76.9,0.5,78.7,0.7c2.5,0.4,4.7,1.9,6.1,4c1.4,2.1,1.8,4.7,1.2,7.2
		C436.3,186.8,421.3,243.7,379.6,255.6z"/>
</g>
</svg>
