<?xml version="1.0" encoding="utf-8"?>
<!-- Generator: Adobe Illustrator 24.1.1, SVG Export Plug-In . SVG Version: 6.00 Build 0)  -->
<svg version="1.1" id="Layer_1" xmlns="http://www.w3.org/2000/svg" xmlns:xlink="http://www.w3.org/1999/xlink" x="0px" y="0px"
	 viewBox="0 0 512 512" style="enable-background:new 0 0 512 512;" xml:space="preserve">
<style type="text/css">
	.st0{fill:none;stroke:#000000;stroke-width:22;stroke-miterlimit:10;}
	.st1{fill:none;stroke:#000000;stroke-width:13;stroke-miterlimit:10;}
	.st2{fill:#FFFFFF;}
	.st3{fill:#2000E9;}
	.st4{fill:#FFFFFF;stroke:#000000;stroke-width:20;stroke-miterlimit:10;}
	.st5{fill:#236184;stroke:#000000;stroke-width:20;stroke-miterlimit:10;}
</style>
<path d="M482,485.6v-53.7c0-12.9-10.5-23.4-23.4-23.4h-138c-12.9,0-23.4,10.5-23.4,23.4v53.7c0,12.9,10.5,23.4,23.4,23.4h138
	C471.5,509,482,498.5,482,485.6z"/>
<g>
	<path class="st2" d="M53.4,504c-10.1,0-18.4-8.3-18.4-18.4v-53.7c0-10.1,8.3-18.4,18.4-18.4h138c10.1,0,18.4,8.3,18.4,18.4v53.7
		c0,10.1-8.3,18.4-18.4,18.4H53.4z"/>
	<path d="M191.4,418.5c7.4,0,13.4,6,13.4,13.4v53.7c0,7.4-6,13.4-13.4,13.4h-138C46,499,40,493,40,485.6v-53.7
		c0-7.4,6-13.4,13.4-13.4H191.4 M191.4,408.5h-138C40.5,408.5,30,419,30,431.9v53.7c0,12.9,10.5,23.4,23.4,23.4h138
		c12.9,0,23.4-10.5,23.4-23.4v-53.7C214.8,419,204.3,408.5,191.4,408.5L191.4,408.5z"/>
</g>
<g>
	<circle class="st4" cx="256" cy="186.1" r="157.2"/>
	<path class="st5" d="M256,346c-88.2,0-159.9-71.7-159.9-159.9S167.8,26.2,256,26.2s159.9,71.7,159.9,159.9S344.2,346,256,346z
		 M256,31.6c-85.2,0-154.5,69.3-154.5,154.5c0,85.2,69.3,154.5,154.5,154.5s154.5-69.3,154.5-154.5C410.5,100.9,341.2,31.6,256,31.6
		z"/>
</g>
<g>
	<path class="st5" d="M237.7,204c-1.5,0-2.7-1.4-2.7-3V75c0-1.7,1.2-3,2.7-3c1.5,0,2.7,1.4,2.7,3v126
		C240.3,202.6,239.1,204,237.7,204z"/>
	<path class="st5" d="M348.3,204H237.7c-1.5,0-2.7-1.4-2.7-3c0-1.7,1.2-3,2.7-3h110.7c1.5,0,2.7,1.4,2.7,3
		C351,202.6,349.8,204,348.3,204z"/>
</g>
</svg>
