<svg width="21" height="21" viewBox="0 0 21 21" fill="none" xmlns="http://www.w3.org/2000/svg">
<path d="M11.7713 13.6457C11.7405 13.6152 11.6988 13.5981 11.6555 13.5981C11.6121 13.5981 11.5704 13.6152 11.5396 13.6457L9.15657 16.0287C8.05325 17.1321 6.19114 17.249 4.97298 16.0287C3.75276 14.8085 3.86966 12.9485 4.97298 11.8451L7.35599 9.46214C7.41956 9.39857 7.41956 9.29398 7.35599 9.2304L6.53978 8.41419C6.50894 8.38366 6.4673 8.36653 6.42391 8.36653C6.38051 8.36653 6.33887 8.38366 6.30804 8.41419L3.92503 10.7972C2.19007 12.5322 2.19007 15.3397 3.92503 17.0726C5.65999 18.8055 8.46751 18.8076 10.2004 17.0726L12.5834 14.6896C12.647 14.626 12.647 14.5214 12.5834 14.4578L11.7713 13.6457ZM17.0746 3.92503C15.3397 2.19007 12.5322 2.19007 10.7992 3.92503L8.41419 6.30804C8.38366 6.33887 8.36653 6.38051 8.36653 6.42391C8.36653 6.4673 8.38366 6.50894 8.41419 6.53978L9.22835 7.35394C9.29193 7.41751 9.39652 7.41751 9.46009 7.35394L11.8431 4.97093C12.9464 3.86761 14.8085 3.75071 16.0267 4.97093C17.2469 6.19114 17.13 8.0512 16.0267 9.15452L13.6437 11.5375C13.6131 11.5684 13.596 11.61 13.596 11.6534C13.596 11.6968 13.6131 11.7384 13.6437 11.7693L14.4599 12.5855C14.5235 12.6491 14.6281 12.6491 14.6916 12.5855L17.0746 10.2025C18.8075 8.46751 18.8075 5.65999 17.0746 3.92503V3.92503ZM12.5117 7.63489C12.4808 7.60436 12.4392 7.58723 12.3958 7.58723C12.3524 7.58723 12.3107 7.60436 12.2799 7.63489L7.63489 12.2779C7.60436 12.3087 7.58723 12.3503 7.58723 12.3937C7.58723 12.4371 7.60436 12.4788 7.63489 12.5096L8.447 13.3217C8.51058 13.3853 8.61517 13.3853 8.67874 13.3217L13.3217 8.67874C13.3853 8.61517 13.3853 8.51058 13.3217 8.447L12.5117 7.63489Z" fill="white"/>
</svg>
