<svg width="16" height="22" viewBox="0 0 16 22" fill="none" xmlns="http://www.w3.org/2000/svg">
<path d="M14.5573 0.75H0.693254C0.504308 0.755233 0.325172 0.835279 0.195222 0.972542C0.0652727 1.1098 -0.00484855 1.29305 0.000260867 1.482V20.518C-0.00484855 20.7069 0.0652727 20.8902 0.195222 21.0275C0.325172 21.1647 0.504308 21.2448 0.693254 21.25H14.5573C14.7462 21.2448 14.9254 21.1647 15.0553 21.0275C15.1852 20.8902 15.2554 20.7069 15.2503 20.518V1.482C15.2554 1.29305 15.1852 1.1098 15.0553 0.972542C14.9254 0.835279 14.7462 0.755233 14.5573 0.75ZM8.92526 2.397H11.0003V7.197L10.0003 6.424L8.92826 7.234L8.92526 2.397ZM13.6913 19.602H1.56026V2.397H7.62526V9.19C7.62467 9.26597 7.64735 9.3403 7.69026 9.403C7.71574 9.44176 7.74882 9.47495 7.78749 9.50056C7.82617 9.52617 7.86962 9.54367 7.91525 9.552C7.96035 9.55981 8.00658 9.55814 8.051 9.54713C8.09541 9.53611 8.13705 9.51597 8.17327 9.488L9.98827 8.118L11.7513 9.477C11.8083 9.52197 11.8786 9.54692 11.9513 9.548C12.0457 9.54512 12.1352 9.50504 12.2002 9.43648C12.2652 9.36792 12.3004 9.27645 12.2983 9.182V2.397H13.6843V19.603L13.6913 19.602Z" fill="white"/>
</svg>
