<svg width="20" height="20" viewBox="0 0 20 20" fill="none" xmlns="http://www.w3.org/2000/svg">
<path d="M9.79001 0.112976C7.85373 0.112976 5.96093 0.687147 4.35097 1.76289C2.74102 2.83862 1.4862 4.36761 0.745223 6.1565C0.00424093 7.94539 -0.189632 9.91384 0.188117 11.8129C0.565866 13.712 1.49827 15.4564 2.86743 16.8256C4.23659 18.1947 5.981 19.1271 7.88007 19.5049C9.77915 19.8826 11.7476 19.6887 13.5365 18.9478C15.3254 18.2068 16.8544 16.952 17.9301 15.342C19.0058 13.7321 19.58 11.8393 19.58 9.90298C19.5797 7.30659 18.5482 4.81661 16.7123 2.98069C14.8764 1.14477 12.3864 0.113241 9.79001 0.112976ZM9.79001 18.032C8.18224 18.032 6.61059 17.5552 5.27378 16.662C3.93697 15.7688 2.89506 14.4992 2.27979 13.0138C1.66453 11.5284 1.50355 9.89396 1.81721 8.31709C2.13087 6.74021 2.90508 5.29177 4.04194 4.15491C5.1788 3.01805 6.62724 2.24383 8.20412 1.93018C9.78099 1.61652 11.4155 1.7775 12.9008 2.39276C14.3862 3.00803 15.6558 4.04994 16.549 5.38675C17.4423 6.72356 17.919 8.29521 17.919 9.90298C17.9185 12.0588 17.0619 14.1261 15.5375 15.6505C14.0131 17.1748 11.9458 18.0314 9.79001 18.032ZM14.126 5.17998C13.9533 5.11265 13.7608 5.1166 13.591 5.19098L7.66801 7.78297L5.07801 13.705C5.04016 13.7914 5.02018 13.8846 5.01926 13.9789C5.01833 14.0733 5.03649 14.1668 5.07264 14.254C5.10879 14.3411 5.16218 14.4201 5.22961 14.486C5.29703 14.552 5.3771 14.6037 5.465 14.638C5.63762 14.7056 5.83003 14.702 6.00001 14.628L11.922 12.036L14.512 6.11298C14.5499 6.02655 14.5698 5.93337 14.5708 5.83903C14.5717 5.74469 14.5535 5.65113 14.5174 5.56399C14.4812 5.47684 14.4278 5.3979 14.3604 5.33191C14.293 5.26592 14.2129 5.21424 14.125 5.17998H14.126ZM11.206 10.392L11.779 10.965L10.852 11.892L10.279 11.319L6.90501 12.796L8.38 9.42197L7.823 8.86298L8.75001 7.93597L9.30701 8.49297L12.683 7.01797L11.206 10.393V10.392ZM8.75001 7.93597L7.823 8.86298L8.38 9.42197L10.28 11.322L10.853 11.895L11.78 10.968L11.207 10.395L9.30701 8.49498L8.75001 7.93597Z" fill="white"/>
</svg>
