<svg width="32" height="34" viewBox="0 0 32 34" fill="none" xmlns="http://www.w3.org/2000/svg">
<path d="M16.0043 26.4623L19.5154 29.9728L23.0259 26.4623L19.5154 22.9518L16.0043 26.4623ZM18.9987 30.4895L15.4882 26.979L11.9777 30.4895L15.4882 34L18.9987 30.4895ZM24.058 18.4073L27.5685 21.9178L31.079 18.4073L27.5685 14.8968L24.058 18.4073ZM27.0524 22.4345L23.5419 18.924L20.0314 22.4345L23.5419 25.945L27.0524 22.4345ZM12.0117 22.4691L15.5222 25.9796L19.0327 22.4691L15.5222 18.9586L12.0117 22.4691ZM15.0061 26.4963L11.4956 22.9858L7.98514 26.4963L11.4956 30.0068L15.0061 26.4963ZM20.0654 14.4142L23.5759 17.9247L27.0864 14.4142L23.5759 10.9037L20.0654 14.4142ZM23.0599 18.4413L19.5494 14.9308L16.0389 18.4413L19.5494 21.9518L23.0599 18.4413ZM8.01909 18.4759L11.5297 21.9864L15.0407 18.4759L11.5297 14.9654L8.01909 18.4759ZM11.0135 22.5031L7.50303 18.9926L3.99254 22.5031L7.50303 26.0136L11.0135 22.5031ZM16.0728 10.421L19.5833 13.9315L23.0939 10.421L19.5833 6.91048L16.0728 10.421ZM19.0673 14.4482L15.5562 10.9377L12.0457 14.4482L15.5562 17.9587L19.0673 14.4482ZM4.02656 14.4828L7.53764 17.9933L11.0481 14.4828L7.53764 10.9723L4.02656 14.4828ZM7.02099 18.5093L3.5105 14.9988L-6.10352e-05 18.5093L3.5105 22.0198L7.02099 18.5093ZM12.0803 6.4272L15.5908 9.93769L19.1013 6.4272L15.5908 2.91669L12.0803 6.4272ZM15.0748 10.4544L11.5643 6.94386L8.0537 10.4544L11.5643 13.9649L15.0748 10.4544Z" fill="#496986"/>
<path d="M15.0748 7.53767L11.5643 4.02718L8.0537 7.53767L11.5643 11.0482L15.0748 7.53767ZM12.0803 3.51049L15.5908 7.021L19.1013 3.51049L15.5908 0L12.0803 3.51049ZM7.02099 15.5926L3.5105 12.0821L-6.10352e-05 15.5926L3.5105 19.1031L7.02099 15.5926ZM4.02656 11.5661L7.53764 15.0766L11.0481 11.5661L7.53764 8.05556L4.02656 11.5661ZM19.0673 11.5315L15.5562 8.02096L12.0457 11.5315L15.5562 15.042L19.0673 11.5315ZM16.0728 7.50428L19.5833 11.0148L23.0939 7.50428L19.5833 3.99377L16.0728 7.50428ZM11.0135 19.5864L7.50303 16.0759L3.99254 19.5864L7.50303 23.0969L11.0135 19.5864ZM8.01909 15.5592L11.5297 19.0698L15.0407 15.5592L11.5297 12.0488L8.01909 15.5592ZM23.0599 15.5246L19.5494 12.0141L16.0389 15.5246L19.5494 19.0351L23.0599 15.5246ZM20.0654 11.4975L23.5759 15.008L27.0864 11.4975L23.5759 7.98697L20.0654 11.4975ZM15.0061 23.5796L11.4956 20.0691L7.98514 23.5796L11.4956 27.0901L15.0061 23.5796ZM12.0117 19.5524L15.5222 23.0629L19.0327 19.5524L15.5222 16.0419L12.0117 19.5524ZM27.0524 19.5178L23.5419 16.0073L20.0314 19.5178L23.5419 23.0283L27.0524 19.5178ZM24.058 15.4912L27.5685 19.0018L31.079 15.4912L27.5685 11.9807L24.058 15.4912ZM18.9987 27.5734L15.4882 24.0629L11.9777 27.5734L15.4882 31.0839L18.9987 27.5734ZM16.0043 23.5462L19.5154 27.0567L23.0259 23.5462L19.5154 20.0357L16.0043 23.5462Z" fill="#496986"/>
<path d="M15.0748 7.53767L11.5643 4.02718L8.0537 7.53767L11.5643 11.0482L15.0748 7.53767ZM12.0803 3.51049L15.5908 7.021L19.1013 3.51049L15.5908 0L12.0803 3.51049ZM7.02099 15.5926L3.5105 12.0821L-6.10352e-05 15.5926L3.5105 19.1031L7.02099 15.5926ZM4.02656 11.5661L7.53764 15.0766L11.0481 11.5661L7.53764 8.05556L4.02656 11.5661ZM19.0673 11.5315L15.5562 8.02096L12.0457 11.5315L15.5562 15.042L19.0673 11.5315ZM16.0728 7.50428L19.5833 11.0148L23.0939 7.50428L19.5833 3.99377L16.0728 7.50428ZM11.0135 19.5864L7.50303 16.0759L3.99254 19.5864L7.50303 23.0969L11.0135 19.5864ZM8.01909 15.5592L11.5297 19.0698L15.0407 15.5592L11.5297 12.0488L8.01909 15.5592ZM23.0599 15.5246L19.5494 12.0141L16.0389 15.5246L19.5494 19.0351L23.0599 15.5246ZM20.0654 11.4975L23.5759 15.008L27.0864 11.4975L23.5759 7.98697L20.0654 11.4975ZM15.0061 23.5796L11.4956 20.0691L7.98514 23.5796L11.4956 27.0901L15.0061 23.5796ZM12.0117 19.5524L15.5222 23.0629L19.0327 19.5524L15.5222 16.0419L12.0117 19.5524ZM27.0524 19.5178L23.5419 16.0073L20.0314 19.5178L23.5419 23.0283L27.0524 19.5178ZM24.058 15.4912L27.5685 19.0018L31.079 15.4912L27.5685 11.9807L24.058 15.4912ZM18.9987 27.5734L15.4882 24.0629L11.9777 27.5734L15.4882 31.0839L18.9987 27.5734ZM16.0043 23.5462L19.5154 27.0567L23.0259 23.5462L19.5154 20.0357L16.0043 23.5462Z" fill="url(#paint0_linear)"/>
<defs>
<linearGradient id="paint0_linear" x1="15.5395" y1="29.9649" x2="15.5395" y2="-1.11902" gradientUnits="userSpaceOnUse">
<stop stop-color="white" stop-opacity="0"/>
<stop offset="0.022" stop-color="white" stop-opacity="0.043"/>
<stop offset="0.193" stop-color="white" stop-opacity="0.38"/>
<stop offset="0.344" stop-color="white" stop-opacity="0.643"/>
<stop offset="0.47" stop-color="white" stop-opacity="0.839"/>
<stop offset="0.565" stop-color="white" stop-opacity="0.957"/>
<stop offset="0.619" stop-color="white"/>
</linearGradient>
</defs>
</svg>
