<svg width="219" height="34" viewBox="0 0 219 34" fill="none" xmlns="http://www.w3.org/2000/svg">
<path d="M16.0043 26.4623L19.5154 29.9728L23.0259 26.4623L19.5154 22.9518L16.0043 26.4623ZM18.9987 30.4895L15.4882 26.979L11.9777 30.4895L15.4882 34L18.9987 30.4895ZM24.058 18.4073L27.5685 21.9178L31.079 18.4073L27.5685 14.8968L24.058 18.4073ZM27.0524 22.4345L23.5419 18.924L20.0314 22.4345L23.5419 25.945L27.0524 22.4345ZM12.0117 22.4691L15.5222 25.9796L19.0327 22.4691L15.5222 18.9586L12.0117 22.4691ZM15.0061 26.4963L11.4956 22.9858L7.98514 26.4963L11.4956 30.0068L15.0061 26.4963ZM20.0654 14.4142L23.5759 17.9247L27.0864 14.4142L23.5759 10.9037L20.0654 14.4142ZM23.0599 18.4413L19.5494 14.9308L16.0389 18.4413L19.5494 21.9518L23.0599 18.4413ZM8.01909 18.4759L11.5297 21.9864L15.0407 18.4759L11.5297 14.9654L8.01909 18.4759ZM11.0135 22.5031L7.50303 18.9926L3.99254 22.5031L7.50303 26.0136L11.0135 22.5031ZM16.0728 10.421L19.5833 13.9315L23.0939 10.421L19.5833 6.91048L16.0728 10.421ZM19.0673 14.4482L15.5562 10.9377L12.0457 14.4482L15.5562 17.9587L19.0673 14.4482ZM4.02656 14.4828L7.53764 17.9933L11.0481 14.4828L7.53764 10.9723L4.02656 14.4828ZM7.02099 18.5093L3.5105 14.9988L-6.10352e-05 18.5093L3.5105 22.0198L7.02099 18.5093ZM12.0803 6.4272L15.5908 9.93769L19.1013 6.4272L15.5908 2.91669L12.0803 6.4272ZM15.0748 10.4544L11.5643 6.94386L8.0537 10.4544L11.5643 13.9649L15.0748 10.4544Z" fill="#496986"/>
<path d="M15.0748 7.53767L11.5643 4.02718L8.0537 7.53767L11.5643 11.0482L15.0748 7.53767ZM12.0803 3.51049L15.5908 7.021L19.1013 3.51049L15.5908 0L12.0803 3.51049ZM7.02099 15.5926L3.5105 12.0821L-6.10352e-05 15.5926L3.5105 19.1031L7.02099 15.5926ZM4.02656 11.5661L7.53764 15.0766L11.0481 11.5661L7.53764 8.05556L4.02656 11.5661ZM19.0673 11.5315L15.5562 8.02096L12.0457 11.5315L15.5562 15.042L19.0673 11.5315ZM16.0728 7.50428L19.5833 11.0148L23.0939 7.50428L19.5833 3.99377L16.0728 7.50428ZM11.0135 19.5864L7.50303 16.0759L3.99254 19.5864L7.50303 23.0969L11.0135 19.5864ZM8.01909 15.5592L11.5297 19.0698L15.0407 15.5592L11.5297 12.0488L8.01909 15.5592ZM23.0599 15.5246L19.5494 12.0141L16.0389 15.5246L19.5494 19.0351L23.0599 15.5246ZM20.0654 11.4975L23.5759 15.008L27.0864 11.4975L23.5759 7.98697L20.0654 11.4975ZM15.0061 23.5796L11.4956 20.0691L7.98514 23.5796L11.4956 27.0901L15.0061 23.5796ZM12.0117 19.5524L15.5222 23.0629L19.0327 19.5524L15.5222 16.0419L12.0117 19.5524ZM27.0524 19.5178L23.5419 16.0073L20.0314 19.5178L23.5419 23.0283L27.0524 19.5178ZM24.058 15.4912L27.5685 19.0018L31.079 15.4912L27.5685 11.9807L24.058 15.4912ZM18.9987 27.5734L15.4882 24.0629L11.9777 27.5734L15.4882 31.0839L18.9987 27.5734ZM16.0043 23.5462L19.5154 27.0567L23.0259 23.5462L19.5154 20.0357L16.0043 23.5462Z" fill="#496986"/>
<path d="M15.0748 7.53767L11.5643 4.02718L8.0537 7.53767L11.5643 11.0482L15.0748 7.53767ZM12.0803 3.51049L15.5908 7.021L19.1013 3.51049L15.5908 0L12.0803 3.51049ZM7.02099 15.5926L3.5105 12.0821L-6.10352e-05 15.5926L3.5105 19.1031L7.02099 15.5926ZM4.02656 11.5661L7.53764 15.0766L11.0481 11.5661L7.53764 8.05556L4.02656 11.5661ZM19.0673 11.5315L15.5562 8.02096L12.0457 11.5315L15.5562 15.042L19.0673 11.5315ZM16.0728 7.50428L19.5833 11.0148L23.0939 7.50428L19.5833 3.99377L16.0728 7.50428ZM11.0135 19.5864L7.50303 16.0759L3.99254 19.5864L7.50303 23.0969L11.0135 19.5864ZM8.01909 15.5592L11.5297 19.0698L15.0407 15.5592L11.5297 12.0488L8.01909 15.5592ZM23.0599 15.5246L19.5494 12.0141L16.0389 15.5246L19.5494 19.0351L23.0599 15.5246ZM20.0654 11.4975L23.5759 15.008L27.0864 11.4975L23.5759 7.98697L20.0654 11.4975ZM15.0061 23.5796L11.4956 20.0691L7.98514 23.5796L11.4956 27.0901L15.0061 23.5796ZM12.0117 19.5524L15.5222 23.0629L19.0327 19.5524L15.5222 16.0419L12.0117 19.5524ZM27.0524 19.5178L23.5419 16.0073L20.0314 19.5178L23.5419 23.0283L27.0524 19.5178ZM24.058 15.4912L27.5685 19.0018L31.079 15.4912L27.5685 11.9807L24.058 15.4912ZM18.9987 27.5734L15.4882 24.0629L11.9777 27.5734L15.4882 31.0839L18.9987 27.5734ZM16.0043 23.5462L19.5154 27.0567L23.0259 23.5462L19.5154 20.0357L16.0043 23.5462Z" fill="url(#paint0_linear)"/>
<path d="M54 4.32501H62.578V7.19201H57.091V13.863H62.291V16.729H57.091V27.375H54V4.32501Z" fill="white"/>
<path d="M72.878 16.582H67.768V24.535H73.62L73.22 27.378H64.677V4.32501H73.165V7.19201H67.765V13.738H72.876L72.878 16.582Z" fill="white"/>
<path d="M78.933 20.71L78.002 27.375H74.862L78.606 4.32202H82.986L86.878 27.375H83.642L82.617 20.708L78.933 20.71ZM82.245 17.867C81.601 13.467 81.065 9.66102 80.82 7.23302H80.703C80.61 9.08302 79.86 14.125 79.334 17.867H82.245Z" fill="white"/>
<path d="M89.535 7.19201H85.821V4.32501H96.344V7.19201H92.626V27.375H89.535V7.19201Z" fill="white"/>
<path d="M100.903 4.32501V22.025C100.903 23.802 101.503 24.901 103.028 24.901C104.587 24.901 105.104 23.763 105.104 22.034V4.32501H108.204V21.952C108.204 25.558 106.579 27.702 102.968 27.702C99.502 27.702 97.81 25.802 97.81 21.983V4.32501H100.903Z" fill="white"/>
<path d="M114.423 16.875V27.375H111.332V4.32501H115.88C119.369 4.32501 121.285 5.76701 121.285 9.77501V10.727C121.285 14.096 119.979 15.159 118.938 15.555C120.332 16.148 121.064 17.173 121.064 20.283C121.002 22.6499 121.075 25.0184 121.282 27.377H118.282C118.048 25.0903 117.967 22.7905 118.041 20.493C118.041 17.608 117.655 16.877 115.499 16.877L114.423 16.875ZM114.423 14.3H115.529C117.541 14.3 118.182 13.355 118.182 10.867V9.97501C118.182 8.05801 117.728 6.89801 115.589 6.89801H114.423V14.3Z" fill="white"/>
<path d="M132.212 16.582H127.098V24.535H132.95L132.55 27.378H124.007V4.32501H132.498V7.19201H127.098V13.738H132.209L132.212 16.582Z" fill="white"/>
<path d="M148.976 20.603V21.452C148.976 24.212 148.5 27.702 143.922 27.702C139.771 27.702 138.958 24.966 138.958 21.502V9.837C138.958 6.224 140.558 4 143.97 4C148.102 4 148.87 6.817 148.87 9.937V10.914H145.758V9.623C145.758 7.966 145.43 6.823 143.948 6.823C142.517 6.823 142.106 7.885 142.106 9.654V21.754C142.106 23.598 142.493 24.916 144.006 24.916C145.519 24.916 145.841 23.671 145.841 21.764V20.603H148.976Z" fill="white"/>
<path d="M154.316 20.71L153.385 27.377H150.245L153.989 4.32397H158.369L162.262 27.375H159.032L158.009 20.708L154.316 20.71ZM157.632 17.867C156.988 13.467 156.453 9.66097 156.208 7.23298H156.09C155.997 9.08297 155.249 14.125 154.721 17.867H157.632Z" fill="white"/>
<path d="M164.917 7.19201H161.204V4.32501H171.726V7.19201H168.009V27.375H164.917V7.19201Z" fill="white"/>
<path d="M174.889 20.71L173.957 27.377H170.818L174.562 4.32397H178.942L182.835 27.375H179.6L178.576 20.708L174.889 20.71ZM178.2 17.867C177.556 13.467 177.022 9.66097 176.777 7.23298H176.659C176.565 9.08297 175.817 14.125 175.29 17.867H178.2Z" fill="white"/>
<path d="M184.644 4.32501H187.735V24.607H193.535L193.246 27.378H184.646L184.644 4.32501Z" fill="white"/>
<path d="M205.295 10.252V21.375C205.295 25.638 203.507 27.702 199.795 27.702C196.123 27.702 194.595 25.502 194.595 21.424V10.239C194.595 6.034 196.633 4 199.995 4C203.457 4 205.295 6.15 205.295 10.252ZM197.751 10.003V21.752C197.751 23.952 198.551 24.908 199.942 24.908C201.429 24.908 202.142 24.001 202.142 21.676V9.989C202.142 7.899 201.463 6.819 199.928 6.819C198.488 6.823 197.749 7.816 197.749 10.002L197.751 10.003Z" fill="white"/>
<path d="M218.061 27.378H215.636C215.543 26.7677 215.484 26.1528 215.459 25.536C215.204 26.2236 214.729 26.8081 214.109 27.1995C213.488 27.5909 212.757 27.7674 212.026 27.702C208.719 27.702 207.646 25.29 207.646 21.477V10.352C207.646 6.58 209.137 4 212.889 4C217.389 4 217.989 7.257 217.989 9.923V10.604H214.897V9.804C214.897 8.421 214.715 6.824 212.88 6.824C211.455 6.824 210.796 7.77 210.796 9.938V21.763C210.796 23.788 211.355 24.956 212.808 24.956C214.59 24.956 214.96 23.387 214.96 20.776V17.282H212.715V14.609H218.062L218.061 27.378Z" fill="white"/>
<defs>
<linearGradient id="paint0_linear" x1="15.5395" y1="29.9649" x2="15.5395" y2="-1.11902" gradientUnits="userSpaceOnUse">
<stop stop-color="white" stop-opacity="0"/>
<stop offset="0.022" stop-color="white" stop-opacity="0.043"/>
<stop offset="0.193" stop-color="white" stop-opacity="0.38"/>
<stop offset="0.344" stop-color="white" stop-opacity="0.643"/>
<stop offset="0.47" stop-color="white" stop-opacity="0.839"/>
<stop offset="0.565" stop-color="white" stop-opacity="0.957"/>
<stop offset="0.619" stop-color="white"/>
</linearGradient>
</defs>
</svg>
