<svg width="165" height="24" viewBox="0 0 165 24" fill="none" xmlns="http://www.w3.org/2000/svg">
<path d="M0 0.325012H8.578V3.19201H3.091V9.86301H8.291V12.729H3.091V23.375H0V0.325012Z" fill="white"/>
<path d="M18.878 12.582H13.768V20.535H19.62L19.22 23.378H10.677V0.325012H19.165V3.19201H13.765V9.73801H18.876L18.878 12.582Z" fill="white"/>
<path d="M24.933 16.71L24.002 23.375H20.862L24.606 0.322021H28.986L32.878 23.375H29.642L28.617 16.708L24.933 16.71ZM28.245 13.867C27.601 9.46702 27.065 5.66102 26.82 3.23302H26.703C26.61 5.08302 25.86 10.125 25.334 13.867H28.245Z" fill="white"/>
<path d="M35.535 3.19201H31.821V0.325012H42.344V3.19201H38.626V23.375H35.535V3.19201Z" fill="white"/>
<path d="M46.903 0.325012V18.025C46.903 19.802 47.503 20.901 49.028 20.901C50.587 20.901 51.104 19.763 51.104 18.034V0.325012H54.204V17.952C54.204 21.558 52.579 23.702 48.968 23.702C45.502 23.702 43.81 21.802 43.81 17.983V0.325012H46.903Z" fill="white"/>
<path d="M60.423 12.875V23.375H57.332V0.325012H61.88C65.369 0.325012 67.285 1.76701 67.285 5.77501V6.72701C67.285 10.096 65.979 11.159 64.938 11.555C66.332 12.148 67.064 13.173 67.064 16.283C67.0022 18.6499 67.075 21.0184 67.282 23.377H64.282C64.0478 21.0903 63.9673 18.7905 64.041 16.493C64.041 13.608 63.655 12.877 61.499 12.877L60.423 12.875ZM60.423 10.3H61.529C63.541 10.3 64.182 9.35501 64.182 6.86701V5.97501C64.182 4.05801 63.728 2.89801 61.589 2.89801H60.423V10.3Z" fill="white"/>
<path d="M78.212 12.582H73.098V20.535H78.95L78.55 23.378H70.007V0.325012H78.498V3.19201H73.098V9.73801H78.209L78.212 12.582Z" fill="white"/>
<path d="M94.976 16.603V17.452C94.976 20.212 94.5 23.702 89.922 23.702C85.771 23.702 84.958 20.966 84.958 17.502V5.837C84.958 2.224 86.558 0 89.97 0C94.102 0 94.87 2.817 94.87 5.937V6.914H91.758V5.623C91.758 3.966 91.43 2.823 89.948 2.823C88.517 2.823 88.106 3.885 88.106 5.654V17.754C88.106 19.598 88.493 20.916 90.006 20.916C91.519 20.916 91.841 19.671 91.841 17.764V16.603H94.976Z" fill="white"/>
<path d="M100.316 16.71L99.385 23.377H96.245L99.989 0.323975H104.369L108.262 23.375H105.032L104.009 16.708L100.316 16.71ZM103.632 13.867C102.988 9.46697 102.453 5.66097 102.208 3.23298H102.09C101.997 5.08297 101.249 10.125 100.721 13.867H103.632Z" fill="white"/>
<path d="M110.917 3.19201H107.204V0.325012H117.726V3.19201H114.009V23.375H110.917V3.19201Z" fill="white"/>
<path d="M120.889 16.71L119.957 23.377H116.818L120.562 0.323975H124.942L128.835 23.375H125.6L124.576 16.708L120.889 16.71ZM124.2 13.867C123.556 9.46697 123.022 5.66097 122.777 3.23298H122.659C122.565 5.08297 121.817 10.125 121.29 13.867H124.2Z" fill="white"/>
<path d="M130.644 0.325012H133.735V20.607H139.535L139.246 23.378H130.646L130.644 0.325012Z" fill="white"/>
<path d="M151.295 6.252V17.375C151.295 21.638 149.507 23.702 145.795 23.702C142.123 23.702 140.595 21.502 140.595 17.424V6.239C140.595 2.034 142.633 0 145.995 0C149.457 0 151.295 2.15 151.295 6.252ZM143.751 6.003V17.752C143.751 19.952 144.551 20.908 145.942 20.908C147.429 20.908 148.142 20.001 148.142 17.676V5.989C148.142 3.899 147.463 2.819 145.928 2.819C144.488 2.823 143.749 3.816 143.749 6.002L143.751 6.003Z" fill="white"/>
<path d="M164.061 23.378H161.636C161.543 22.7677 161.484 22.1528 161.459 21.536C161.204 22.2236 160.729 22.8081 160.109 23.1995C159.488 23.5909 158.757 23.7674 158.026 23.702C154.719 23.702 153.646 21.29 153.646 17.477V6.352C153.646 2.58 155.137 0 158.889 0C163.389 0 163.989 3.257 163.989 5.923V6.604H160.897V5.804C160.897 4.421 160.715 2.824 158.88 2.824C157.455 2.824 156.796 3.77 156.796 5.938V17.763C156.796 19.788 157.355 20.956 158.808 20.956C160.59 20.956 160.96 19.387 160.96 16.776V13.282H158.715V10.609H164.062L164.061 23.378Z" fill="white"/>
</svg>
