<svg width="20" height="20" viewBox="0 0 20 20" fill="none" xmlns="http://www.w3.org/2000/svg">
<path d="M19.5171 9.75198L11.0221 1.51698L10.4531 0.963982C10.3216 0.838538 10.1468 0.768555 9.96506 0.768555C9.78332 0.768555 9.60855 0.838538 9.47705 0.963982L0.413056 9.75598C0.280999 9.88272 0.176243 10.0351 0.105222 10.2038C0.0342002 10.3725 -0.00158918 10.554 5.41297e-05 10.737C0.0131069 11.1043 0.170064 11.4517 0.437043 11.7043C0.704021 11.9568 1.05961 12.0943 1.42706 12.087H2.36105V19.036H17.5691V12.084H18.5231C18.8959 12.0869 19.2551 11.9433 19.5231 11.684C19.6533 11.5592 19.757 11.4093 19.8278 11.2434C19.8987 11.0774 19.9352 10.8989 19.9352 10.7185C19.9352 10.5381 19.8987 10.3595 19.8278 10.1936C19.757 10.0277 19.6533 9.87778 19.5231 9.75298L19.5171 9.75198ZM11.1961 17.496H8.73406V13.144H11.1961V17.496ZM15.9861 10.547V17.496H12.6041V12.632C12.6024 12.5183 12.5783 12.406 12.5332 12.3016C12.4881 12.1971 12.4229 12.1026 12.3412 12.0234C12.2596 11.9442 12.1632 11.8818 12.0575 11.8399C11.9517 11.798 11.8388 11.7773 11.7251 11.779H8.20406C8.09033 11.7773 7.97737 11.798 7.87164 11.8399C7.76592 11.8818 7.66949 11.9442 7.58787 12.0234C7.50624 12.1026 7.44101 12.1971 7.39592 12.3016C7.35083 12.406 7.32675 12.5183 7.32506 12.632V17.496H3.94405V10.548H1.83405L9.96806 2.66098L18.1001 10.549L15.9861 10.547Z" fill="white"/>
</svg>
