<svg width="16" height="14" viewBox="0 0 16 14" fill="none" xmlns="http://www.w3.org/2000/svg">
<path d="M15.195 12.169H1.43999V0.43197C1.43843 0.390943 1.42075 0.3522 1.3908 0.32412C1.36085 0.29604 1.32105 0.280893 1.28001 0.281976H0.159996C0.118954 0.280893 0.0791387 0.29604 0.0491867 0.32412C0.0192347 0.3522 0.00156481 0.390943 0 0.43197V13.372C0.00156481 13.413 0.0192347 13.4518 0.0491867 13.4798C0.0791387 13.5079 0.118954 13.5231 0.159996 13.522H15.194C15.235 13.5231 15.2748 13.5079 15.3048 13.4798C15.3348 13.4518 15.3524 13.413 15.354 13.372V12.319C15.3524 12.2781 15.3349 12.2395 15.3052 12.2115C15.2754 12.1834 15.2359 12.1682 15.195 12.169ZM3.555 9.26898C3.58592 9.29708 3.62622 9.31266 3.66801 9.31266C3.7098 9.31266 3.75008 9.29708 3.781 9.26898L6.546 6.68098L9.09699 9.09597C9.12792 9.12408 9.16821 9.13966 9.21 9.13966C9.25179 9.13966 9.29208 9.12408 9.32301 9.09597L14.829 3.91798C14.8437 3.9044 14.8554 3.88794 14.8634 3.86961C14.8715 3.85128 14.8756 3.83148 14.8756 3.81147C14.8756 3.79146 14.8715 3.77168 14.8634 3.75335C14.8554 3.73502 14.8437 3.71856 14.829 3.70498L14.037 2.95997C14.0061 2.93186 13.9658 2.9163 13.924 2.9163C13.8822 2.9163 13.8419 2.93186 13.811 2.95997L9.21101 7.28397L6.66399 4.87298C6.63307 4.84487 6.59279 4.82929 6.551 4.82929C6.50921 4.82929 6.46892 4.84487 6.438 4.87298L2.76299 8.30897C2.7483 8.32255 2.73657 8.33903 2.72855 8.35735C2.72053 8.37568 2.71641 8.39547 2.71641 8.41547C2.71641 8.43548 2.72053 8.45527 2.72855 8.4736C2.73657 8.49192 2.7483 8.5084 2.76299 8.52198L3.555 9.26898Z" fill="white"/>
</svg>
